# Blender v2.93.5 OBJ File: 'WW2_smalarms.blend'
# www.blender.org
mtllib w1.mtl
o stg44_Cube.006
v -6.258602 -0.689061 -0.264862
v -6.258602 -0.689061 0.264861
v -6.700743 0.581994 -0.264861
v -6.700743 0.581994 0.264862
v 0.689061 -0.689061 -0.264862
v 0.689061 -0.689061 0.264861
v 0.689061 0.689061 -0.264861
v 0.689061 0.689061 0.264862
v -6.700743 -0.409276 -0.264862
v -6.700743 -0.409276 0.264861
v -10.540380 0.581994 -0.264861
v -10.540380 -0.409276 -0.264862
v -10.540380 -0.409276 0.264861
v -10.540380 0.581994 0.264862
v 1.852588 0.130568 0.264862
v 1.852588 0.130568 -0.264862
v 4.554775 -0.057592 0.264862
v 4.554775 -0.057592 -0.264862
v 4.360854 -2.354685 -0.264862
v 4.360854 -2.354685 0.264861
v -3.897550 -1.445740 -0.252466
v -3.897550 -1.445740 0.252466
v -5.217205 -0.678512 -0.252466
v -5.217205 -0.678512 0.252466
v -0.767053 -1.445740 -0.252466
v -0.767053 -1.445740 0.252466
v -1.060002 -0.678512 -0.252466
v -1.060002 -0.678512 0.252466
v -5.347589 -1.238645 -0.252466
v -5.347589 -1.238645 0.252466
v -1.896410 -1.445740 -0.252466
v -1.896410 -1.445740 0.252466
v -0.016578 -2.543770 0.252466
v -0.016578 -2.543770 -0.252466
v -0.887959 -2.948468 -0.252466
v -0.887959 -2.948468 0.252466
v -5.293615 -2.310236 -0.196382
v -5.293615 -2.310236 0.196382
v -5.236886 -1.223652 -0.196382
v -5.236886 -1.223652 0.196382
v -4.224073 -2.939111 -0.196382
v -4.224073 -2.939111 0.196382
v -4.126019 -1.223652 -0.196382
v -4.126019 -1.223652 0.196382
v -5.665344 -3.732120 -0.196382
v -5.665344 -3.732120 0.196382
v -4.637269 -4.360994 0.196381
v -4.637269 -4.360994 -0.196382
v -6.027206 -4.730346 -0.196382
v -6.027206 -4.730346 0.196381
v -5.054813 -5.197268 0.196381
v -5.054813 -5.197268 -0.196382
v -13.393274 0.077833 -0.000000
v -10.433132 0.077833 0.000000
v -13.393274 -0.122181 -0.200014
v -10.433132 -0.122181 -0.200014
v -13.393274 -0.322194 -0.000000
v -10.433132 -0.322194 0.000000
v -13.393274 -0.122181 0.200014
v -10.433132 -0.122181 0.200014
v -6.091452 0.556105 0.000000
v -1.806683 0.645914 0.000000
v -5.683408 1.155916 0.000000
v -1.806683 1.155916 0.000000
v -5.683408 1.148290 -0.316794
v -1.806683 1.148290 -0.316794
v -5.683408 1.148290 0.193208
v -1.806683 1.148290 0.193208
v -13.050551 0.021724 0.000000
v -12.443074 0.021724 0.000000
v -13.050551 1.279259 0.000000
v -12.689761 1.279259 0.000000
v -11.540407 0.527508 0.000000
v -10.508261 0.527508 0.000000
v -11.540407 0.286290 -0.139268
v -10.508261 0.286290 -0.139268
v -11.540407 0.286290 0.139268
v -10.508261 0.286290 0.139268
vt 0.896766 0.201831
vt 0.906433 0.229621
vt 0.906433 0.207948
vt 0.900177 0.230290
vt 0.900177 0.241916
vt 0.737977 0.241916
vt 0.737977 0.230290
vt 0.744862 0.231962
vt 0.744862 0.201831
vt 0.719422 0.219751
vt 0.993549 0.192789
vt 0.993549 0.198021
vt 0.924936 0.198021
vt 0.924936 0.192789
vt 0.906433 0.229621
vt 0.744862 0.231962
vt 0.744862 0.201831
vt 0.896766 0.201831
vt 0.984445 0.230291
vt 0.984445 0.241916
vt 0.906433 0.207948
vt 0.919768 0.198021
vt 0.919768 0.192789
vt 0.953422 0.250604
vt 0.941810 0.250604
vt 0.941810 0.228874
vt 0.953422 0.228874
vt 0.881849 0.198021
vt 0.881849 0.192789
vt 0.990383 0.229621
vt 0.990383 0.207948
vt 0.990383 0.207948
vt 0.990383 0.229621
vt 0.664581 0.165414
vt 0.660341 0.215637
vt 0.709652 0.241916
vt 0.709652 0.230290
vt 0.719422 0.219751
vt 0.659530 0.212049
vt 0.649262 0.212049
vt 0.649262 0.167365
vt 0.659529 0.167365
vt 0.650204 0.241916
vt 0.650204 0.230290
vt 0.737825 0.184423
vt 0.733603 0.193249
vt 0.666425 0.161115
vt 0.670647 0.152289
vt 0.660341 0.215637
vt 0.664581 0.165414
vt -0.559966 1.529086
vt -0.559966 1.529086
vt -0.556598 1.543553
vt -0.556598 1.543553
vt 0.768569 0.182569
vt 0.763291 0.187887
vt 0.754641 0.179303
vt 0.759919 0.173984
vt 0.846272 0.182705
vt 0.846272 0.182705
vt 0.794585 0.182705
vt 0.794585 0.182705
vt 0.783103 0.202062
vt 0.776698 0.185287
vt 0.801391 0.185287
vt 0.783103 0.202062
vt 0.873997 0.202062
vt 0.845144 0.185287
vt 0.801391 0.185287
vt 0.033105 0.928723
vt 0.033105 0.891756
vt 0.090466 0.891927
vt 0.090466 0.928895
vt 0.876847 0.189815
vt 0.873997 0.202062
vt 0.845144 0.185287
vt 0.876847 0.189815
vt 0.776698 0.185287
vt 0.779342 0.152431
vt 0.760290 0.161279
vt 0.760619 0.162372
vt 0.753780 0.153097
vt 0.771428 0.140084
vt 0.778267 0.149359
vt 0.760290 0.161279
vt 0.779342 0.152431
vt 0.780278 0.146504
vt 0.786431 0.141189
vt 0.805480 0.163241
vt 0.799327 0.168556
vt 0.740632 0.165401
vt 0.745910 0.160083
vt 0.892837 0.166434
vt 0.906919 0.166434
vt 0.906919 0.181521
vt 0.892837 0.181521
vt 0.881667 0.136227
vt 0.854771 0.127867
vt 0.866241 0.102497
vt 0.891357 0.114556
vt 0.832877 0.108317
vt 0.846699 0.108533
vt 0.846699 0.134051
vt 0.832877 0.133835
vt 0.892837 0.146055
vt 0.906919 0.146055
vt 0.871286 0.192107
vt 0.842594 0.192107
vt 0.845812 0.158423
vt 0.872409 0.167469
vt 0.842594 0.192107
vt 0.871286 0.192107
vt 0.872409 0.167469
vt 0.845812 0.158423
vt 0.881667 0.136227
vt 0.854771 0.127867
vt 0.846699 0.156041
vt 0.832877 0.155826
vt 0.864886 0.105008
vt 0.869230 0.095386
vt 0.895655 0.107317
vt 0.891311 0.116939
vt 0.892837 0.131332
vt 0.906919 0.131332
vt 0.891357 0.114556
vt 0.866241 0.102497
vt 0.846699 0.169923
vt 0.832877 0.169707
vt 0.035283 0.998457
vt 0.269939 0.998457
vt 0.269939 0.982602
vt 0.035283 0.982602
vt 0.269939 0.966746
vt 0.035283 0.966746
vt 0.269939 0.982602
vt 0.035283 0.982602
vt 0.034067 0.999556
vt 0.000319 0.999556
vt 0.000319 0.965809
vt 0.034067 0.965809
vt 0.756186 0.231270
vt 0.866857 0.233589
vt 0.866857 0.246762
vt 0.766726 0.246762
vt 0.845951 0.106351
vt 0.845951 0.206519
vt 0.832773 0.206519
vt 0.832773 0.106351
vt 0.524089 0.028436
vt 0.524089 0.006008
vt 0.587359 0.015115
vt 0.587359 0.028436
vt 0.041237 0.997686
vt 0.166576 0.997686
vt 0.166576 0.968392
vt 0.041237 0.968392
vt 0.166576 0.968392
vt 0.041237 0.968392
vt 0.069029 0.987961
vt 0.069029 0.981731
vt 0.069029 0.981731
vn 0.0000 -0.0000 1.0000
vn -0.0072 1.0000 0.0000
vn 0.2148 0.9767 0.0000
vn -0.2113 -0.9774 0.0000
vn -0.2784 -0.9605 0.0000
vn 0.0000 0.0000 -1.0000
vn 0.0000 1.0000 0.0000
vn -1.0000 0.0000 0.0000
vn 0.0000 -1.0000 0.0000
vn 0.2557 0.9668 0.0000
vn 0.9965 -0.0841 0.0000
vn 0.0695 0.9976 0.0000
vn -0.4131 -0.9107 0.0000
vn -0.9740 0.2267 0.0000
vn 0.9342 0.3567 0.0000
vn 0.8860 0.4637 0.0000
vn -0.0709 -0.9975 0.0000
vn -0.1414 -0.9900 0.0000
vn 0.4212 -0.9070 0.0000
vn -0.8304 -0.5572 0.0000
vn 0.8256 0.5643 0.0000
vn -0.9882 0.1533 0.0000
vn -0.9986 0.0521 0.0000
vn 0.9984 -0.0571 0.0000
vn 0.9856 -0.1691 0.0000
vn -0.9548 0.2972 0.0000
vn 0.9313 -0.3644 0.0000
vn -0.4329 -0.9015 0.0000
vn -0.9401 0.3408 0.0000
vn 0.8947 -0.4467 0.0000
vn 0.0000 0.7071 -0.7071
vn 0.0000 -0.7071 -0.7071
vn -0.0000 -0.7071 0.7071
vn -0.0000 0.7071 0.7071
vn 0.0000 0.5000 -0.8660
vn -0.0000 0.5000 0.8660
usemtl Material
s 1
f 2/1/1 4/2/1 10/3/1
f 3/4/2 4/5/2 8/6/3 7/7/3
f 8/8/1 6/9/1 15/10/1
f 5/11/4 6/12/4 2/13/5 1/14/5
f 3/15/6 7/16/6 5/17/6 1/18/6
f 8/8/1 4/2/1 2/1/1 6/9/1
f 4/5/2 3/4/2 11/19/7 14/20/7
f 3/15/6 1/18/6 9/21/6
f 1/14/5 2/13/5 10/22/5 9/23/5
f 12/24/8 13/25/8 14/26/8 11/27/8
f 9/23/5 10/22/5 13/28/9 12/29/9
f 10/3/1 4/2/1 14/30/1 13/31/1
f 3/15/6 9/21/6 12/32/6 11/33/6
f 15/10/1 6/9/1 20/34/1 17/35/1
f 7/7/3 8/6/3 15/36/10 16/37/10
f 5/17/6 7/16/6 16/38/6
f 18/39/11 17/40/11 20/41/11 19/42/11
f 16/37/10 15/36/10 17/43/12 18/44/12
f 6/45/4 5/46/4 19/47/13 20/48/13
f 5/17/6 16/38/6 18/49/6 19/50/6
f 29/51/14 30/52/14 24/53/14 23/54/14
f 27/55/15 28/56/15 26/57/16 25/58/16
f 31/59/9 32/60/9 22/61/17 21/62/17
f 27/63/6 25/64/6 31/65/6
f 28/66/1 24/67/1 22/68/1 32/69/1
f 21/70/17 22/71/17 30/72/18 29/73/18
f 22/68/1 24/67/1 30/74/1
f 23/75/6 21/76/6 29/77/6
f 28/66/1 32/69/1 26/78/1
f 23/75/6 27/63/6 31/65/6 21/76/6
f 26/78/1 32/69/1 36/79/1 33/80/1
f 34/81/19 33/82/19 36/83/19 35/84/19
f 31/65/6 25/64/6 34/85/6 35/86/6
f 32/87/20 31/88/20 35/89/20 36/90/20
f 25/58/16 26/57/16 33/91/21 34/92/21
f 37/93/22 38/94/22 40/95/23 39/96/23
f 45/97/6 48/98/6 52/99/6 49/100/6
f 43/101/24 44/102/24 42/103/25 41/104/25
f 38/94/22 37/93/22 45/105/26 46/106/26
f 39/107/6 43/108/6 41/109/6 37/110/6
f 44/111/1 40/112/1 38/113/1 42/114/1
f 37/110/6 41/109/6 48/98/6 45/97/6
f 42/114/1 38/113/1 46/115/1 47/116/1
f 41/104/25 42/103/25 47/117/27 48/118/27
f 52/119/28 51/120/28 50/121/28 49/122/28
f 46/106/26 45/105/26 49/123/29 50/124/29
f 47/116/1 46/115/1 50/125/1 51/126/1
f 48/118/27 47/117/27 51/127/30 52/128/30
f 53/129/31 54/130/31 56/131/31 55/132/31
f 55/132/32 56/131/32 58/133/32 57/134/32
f 57/134/33 58/133/33 60/135/33 59/136/33
f 59/136/34 60/135/34 54/130/34 53/129/34
f 53/137/8 55/138/8 57/139/8 59/140/8
f 61/141/1 62/142/1 64/143/1 63/144/1
f 65/145/9 66/146/9 68/147/9 67/148/9
f 69/149/1 70/150/1 72/151/1 71/152/1
f 73/153/35 74/154/35 76/155/35 75/156/35
f 75/156/9 76/155/9 78/157/9 77/158/9
f 77/158/36 78/157/36 74/154/36 73/153/36
f 73/159/8 75/160/8 77/161/8
