# Blender v2.93.5 OBJ File: ''
# www.blender.org
mtllib w5.mtl
o tompsonm1a1_Cube.017
v -0.509053 -0.509053 -0.340707
v -0.509053 -0.509053 0.340707
v -0.509053 0.509053 -0.340707
v -0.509053 0.509053 0.340707
v 6.304712 -0.509053 -0.340707
v 6.304712 -0.509053 0.340707
v 6.304712 0.509053 -0.340707
v 6.304712 0.509053 0.340707
v -4.804326 -0.485997 -0.261682
v -4.804326 -0.485997 0.261682
v -4.804326 0.173017 -0.261682
v -4.804326 0.173017 0.261682
v -0.488515 -0.580480 -0.261682
v -0.488515 -0.580480 0.261682
v -0.488515 0.173017 -0.261682
v -0.488515 0.173017 0.261682
v -5.570660 0.507810 0.000000
v -0.478668 0.507810 0.000000
v -5.570660 0.233044 -0.274766
v -0.478668 0.233044 -0.274766
v -5.570660 -0.041721 0.000000
v -0.478668 -0.041721 0.000000
v -5.570660 0.233044 0.274766
v -0.478668 0.233044 0.274766
v -5.512331 0.491758 0.000000
v -5.244168 0.491758 0.000000
v -5.418082 0.712796 0.000000
v -5.244168 0.732431 0.000000
v 4.384273 0.491758 -0.206778
v 6.010922 0.491758 -0.206778
v 5.402048 0.951341 -0.206778
v 5.596978 0.951341 -0.206778
v 4.384273 0.491758 0.169776
v 6.010922 0.491758 0.169776
v 5.402048 0.951341 0.169776
v 5.596978 0.951341 0.169776
v 1.347435 -1.425915 -0.243105
v 1.347435 -1.425915 0.243105
v 1.347435 -0.501320 -0.243105
v 1.347435 -0.501320 0.243105
v 3.512830 -0.501320 -0.243105
v 3.512830 -0.501320 0.243105
v 2.586570 -1.425915 -0.243105
v 2.586570 -1.425915 0.243105
v 0.600850 -3.763019 0.201631
v 0.600850 -3.763019 -0.201632
v 3.360501 -2.860884 -0.243105
v 3.360501 -2.860884 0.243105
v 4.159144 -2.552970 0.264006
v 4.366319 -1.931973 0.261078
v 4.366319 -1.931973 -0.225132
v 4.159144 -2.552970 -0.222203
v 0.600850 -0.489630 -0.201632
v 0.600850 -0.489630 0.201632
v 1.416761 -3.763019 -0.201632
v 1.416761 -3.763019 0.201631
v 1.416761 -0.489630 -0.201632
v 1.416761 -0.489630 0.201632
v 4.708462 -1.133134 -0.304900
v 4.708462 -1.133134 0.304900
v 4.389573 -0.420957 -0.304900
v 4.389573 -0.420957 0.304900
v 6.675204 -1.694731 -0.304900
v 6.675204 -1.694731 0.304900
v 6.179947 -0.520343 -0.304900
v 6.179947 -0.520343 0.304900
v 6.960835 -0.284635 0.304900
v 6.960835 -0.284635 -0.304900
v 10.695089 -1.340828 0.304900
v 10.695089 -1.340828 -0.304900
v 10.859936 -3.866214 -0.304900
v 10.859936 -3.866214 0.304900
vt -0.385284 1.227666
vt -0.385284 1.227666
vt -0.385284 1.253962
vt -0.385284 1.253962
vt 0.379916 0.109880
vt 0.379916 0.095987
vt 0.518838 0.095987
vt 0.518838 0.109880
vt 0.527422 0.114634
vt 0.538651 0.114634
vt 0.538651 0.131410
vt 0.527422 0.131410
vt 0.496809 0.123106
vt 0.496809 0.123106
vt 0.435906 0.123106
vt 0.435906 0.123106
vt 0.377431 0.114939
vt 0.524124 0.114939
vt 0.524124 0.136858
vt 0.377431 0.136858
vt 0.524124 0.114939
vt 0.377431 0.114939
vt 0.377431 0.136858
vt 0.524124 0.136858
vt -0.496225 1.228261
vt -0.496225 1.228261
vt -0.496225 1.245283
vt -0.496225 1.245283
vt 0.282923 0.108373
vt 0.282923 0.096936
vt 0.377256 0.096936
vt 0.377256 0.108373
vt 0.284958 0.116981
vt 0.377873 0.116981
vt 0.377873 0.138395
vt 0.284958 0.136361
vt 0.377873 0.116981
vt 0.284958 0.116981
vt 0.284958 0.136361
vt 0.377873 0.138395
vt 0.036655 0.966378
vt 0.246882 0.966378
vt 0.246882 0.982421
vt 0.036655 0.982421
vt 0.246882 0.998463
vt 0.036655 0.998463
vt 0.036655 0.966378
vt 0.246882 0.966378
vt 0.246882 0.982421
vt 0.036655 0.982421
vt 0.246882 0.998463
vt 0.036655 0.998463
vt 0.033950 0.965944
vt 0.033950 0.999389
vt 0.000505 0.999389
vt 0.000505 0.965944
vt 0.558893 0.029513
vt 0.559167 0.004837
vt 0.581313 0.005084
vt 0.579329 0.021066
vt 0.523943 0.002961
vt 0.589188 0.002961
vt 0.572585 0.021395
vt 0.564766 0.021395
vt 0.523943 0.002961
vt 0.589188 0.002961
vt 0.572585 0.021395
vt 0.564766 0.021395
vt 0.362272 0.151117
vt 0.373972 0.151117
vt 0.373972 0.219992
vt 0.362272 0.219992
vt -0.337333 1.227865
vt -0.337333 1.227865
vt -0.281403 1.227865
vt -0.281403 1.227865
vt 0.421391 0.153709
vt 0.421254 0.138541
vt 0.442543 0.138541
vt 0.442679 0.153709
vt 0.417399 0.136691
vt 0.464018 0.136691
vt 0.444076 0.156596
vt 0.417399 0.136691
vt 0.417399 0.156596
vt 0.444076 0.156596
vt 0.464018 0.136691
vt 0.417399 0.156596
vt 0.490298 0.179486
vt 0.489109 0.194491
vt 0.476549 0.203573
vt 0.489109 0.194491
vt 0.544764 0.186538
vt 0.544764 0.186538
vt 0.524136 0.178585
vt 0.524136 0.178585
vt 0.425451 0.176953
vt 0.438137 0.166897
vt 0.471856 0.209436
vt 0.459170 0.219492
vt 0.490298 0.179486
vt 0.529357 0.170956
vt 0.529357 0.170956
vt 0.534709 0.186995
vt 0.534709 0.186995
vt 0.501789 0.179974
vt 0.495756 0.183538
vt 0.483321 0.162997
vt 0.489354 0.159433
vt 0.476549 0.203573
vt 0.398583 0.221295
vt 0.381061 0.221295
vt 0.381061 0.136618
vt 0.398583 0.136618
vt 0.421088 0.154465
vt 0.421088 0.141402
vt 0.442339 0.141402
vt 0.442339 0.154465
vt 0.401326 0.136439
vt 0.418892 0.136439
vt 0.418892 0.219276
vt 0.401326 0.219276
vt 0.420136 0.217106
vt 0.399062 0.217106
vt 0.399062 0.132558
vt 0.420136 0.132558
vt 0.524032 0.149003
vt 0.518601 0.158046
vt 0.498578 0.157639
vt 0.504009 0.148595
vt 0.521438 0.137100
vt 0.537293 0.151566
vt 0.538249 0.132026
vt 0.544006 0.156588
vt 0.538574 0.165632
vt 0.492979 0.134961
vt 0.521438 0.137100
vt 0.537293 0.151566
vt 0.504206 0.148112
vt 0.492979 0.134961
vt 0.504206 0.148112
vt 0.613923 0.198579
vt 0.608492 0.207622
vt 0.540194 0.131610
vt 0.540194 0.117402
vt 0.559199 0.117402
vt 0.559199 0.131610
vt 0.538249 0.132026
vt 0.626068 0.154587
vt 0.641394 0.154587
vt 0.641394 0.204953
vt 0.626068 0.204953
vt 0.628597 0.151303
vt 0.628251 0.208701
vt 0.628251 0.208701
vt 0.628597 0.151303
vt 0.625817 0.117402
vt 0.625817 0.131610
vn -1.0000 0.0000 0.0000
vn 0.0000 1.0000 0.0000
vn 1.0000 0.0000 0.0000
vn 0.0000 -1.0000 0.0000
vn 0.0000 0.0000 -1.0000
vn 0.0000 -0.0000 1.0000
vn -0.0219 -0.9998 0.0000
vn 0.0000 0.7071 -0.7071
vn 0.0000 -0.7071 -0.7071
vn -0.0000 -0.7071 0.7071
vn -0.0000 0.7071 0.7071
vn 0.0050 -0.0048 -1.0000
vn 0.0050 -0.0013 -1.0000
vn -0.0050 0.0013 1.0000
vn -0.0050 0.0048 1.0000
vn 0.0079 -0.0077 -0.9999
vn 0.0139 0.0008 -0.9999
vn -0.0217 -0.0117 0.9997
vn -0.0139 -0.0008 0.9999
vn 0.3597 -0.9331 0.0000
vn -0.8801 -0.4747 0.0000
vn -0.0079 0.0077 0.9999
vn 0.9486 -0.3165 0.0000
vn 0.8588 0.5123 0.0000
vn 0.0217 0.0117 -0.9997
vn -0.9127 -0.4087 0.0000
vn -0.3694 -0.9293 0.0000
vn -0.2746 -0.9616 0.0000
vn -0.4606 -0.8876 0.0000
vn -0.2890 0.9573 0.0000
vn -0.0088 1.0000 0.0000
vn 0.9979 0.0651 0.0000
vn 0.2722 0.9623 0.0000
usemtl Material.005
s 1
f 1/1/1 2/2/1 4/3/1 3/4/1
f 3/5/2 4/6/2 8/7/2 7/8/2
f 7/9/3 8/10/3 6/11/3 5/12/3
f 5/13/4 6/14/4 2/15/4 1/16/4
f 3/17/5 7/18/5 5/19/5 1/20/5
f 8/21/6 4/22/6 2/23/6 6/24/6
f 9/25/1 10/26/1 12/27/1 11/28/1
f 13/29/7 14/30/7 10/31/7 9/32/7
f 11/33/5 15/34/5 13/35/5 9/36/5
f 16/37/6 12/38/6 10/39/6 14/40/6
f 17/41/8 18/42/8 20/43/8 19/44/8
f 19/44/9 20/43/9 22/45/9 21/46/9
f 21/47/10 22/48/10 24/49/10 23/50/10
f 23/50/11 24/49/11 18/51/11 17/52/11
f 17/53/1 19/54/1 21/55/1 23/56/1
f 25/57/6 26/58/6 28/59/6 27/60/6
f 29/61/6 30/62/6 32/63/6 31/64/6
f 33/65/6 34/66/6 36/67/6 35/68/6
f 46/69/1 45/70/1 54/71/1 53/72/1
f 39/73/2 40/74/2 42/75/2 41/76/2
f 43/77/4 44/78/4 38/79/4 37/80/4
f 39/81/5 41/82/12 43/83/13
f 40/84/6 38/85/6 44/86/14
f 42/87/15 40/84/6 44/86/14
f 39/81/5 43/83/13 37/88/5
f 43/83/13 41/82/12 51/89/16 52/90/17
f 44/86/14 48/91/18 49/92/19
f 52/93/20 49/94/20 48/95/20 47/96/20
f 44/97/21 43/98/21 47/99/21 48/100/21
f 42/87/15 44/86/14 49/92/19 50/101/22
f 49/102/23 52/103/23 51/104/23 50/105/23
f 41/106/24 42/107/24 50/108/24 51/109/24
f 47/110/25 43/83/13 52/90/17
f 57/111/3 58/112/3 56/113/3 55/114/3
f 55/115/4 56/116/4 45/117/4 46/118/4
f 53/119/5 57/120/5 55/121/5 46/122/5
f 58/123/6 54/124/6 45/125/6 56/126/6
f 59/127/26 60/128/26 62/129/26 61/130/26
f 66/131/6 64/132/6 67/133/6
f 63/134/27 64/135/27 60/128/28 59/127/28
f 61/136/5 65/137/5 63/138/5 59/139/5
f 66/131/6 62/140/6 60/141/6 64/132/6
f 64/135/27 63/134/27 71/142/29 72/143/29
f 65/144/30 66/145/30 67/146/31 68/147/31
f 63/138/5 65/137/5 68/148/5
f 70/149/32 69/150/32 72/151/32 71/152/32
f 63/138/5 68/148/5 70/153/5 71/154/5
f 67/133/6 64/132/6 72/155/6 69/156/6
f 68/147/31 67/146/31 69/157/33 70/158/33
